<?xml version="1.0" standalone="no"?>
<!DOCTYPE svg PUBLIC "-//W3C//DTD SVG 20010904//EN"
 "http://www.w3.org/TR/2001/REC-SVG-20010904/DTD/svg10.dtd">
<svg version="1.0" xmlns="http://www.w3.org/2000/svg"
 width="512.000000pt" height="512.000000pt" viewBox="0 0 512.000000 512.000000"
 preserveAspectRatio="xMidYMid meet">

<g transform="translate(0.000000,512.000000) scale(0.100000,-0.100000)"
fill="#000000" stroke="none">
<path d="M4030 3328 c52 -111 61 -272 20 -378 -23 -61 -85 -157 -112 -171 -19
-10 -15 -14 51 -41 188 -79 294 -277 263 -492 -29 -201 -159 -337 -379 -398
-76 -22 -97 -22 -695 -26 l-618 -3 0 689 0 689 -22 29 c-12 16 -43 52 -70 81
l-48 52 -2 -767 -3 -767 -165 0 -165 0 -5 480 -5 480 -54 -125 c-84 -193 -269
-626 -304 -709 -29 -69 -32 -72 -41 -50 -50 121 -449 966 -462 978 -2 3 -4
-234 -4 -525 l1 -529 -162 -3 -162 -3 33 -24 c18 -13 184 -172 369 -352 185
-180 404 -393 486 -472 83 -79 245 -236 360 -350 116 -114 269 -264 341 -334
l131 -127 1177 0 1176 0 0 1135 0 1134 -279 278 c-153 153 -365 369 -471 481
-106 111 -197 202 -201 202 -4 0 5 -28 21 -62z m54 -1542 c69 -29 101 -109 69
-174 -52 -106 -189 -109 -235 -5 -31 70 -13 138 45 173 38 23 75 25 121 6z"/>
<path d="M3966 1749 c-38 -30 -49 -63 -36 -109 14 -51 51 -80 102 -80 55 0
108 51 108 105 0 29 -8 45 -34 71 -42 42 -97 47 -140 13z m120 -33 c49 -49 43
-100 -16 -131 -41 -21 -58 -19 -91 14 -37 37 -40 88 -6 118 46 42 70 42 113
-1z"/>
<path d="M3992 1704 c-45 -31 -17 -104 40 -104 53 0 79 74 36 104 -12 9 -29
16 -38 16 -9 0 -26 -7 -38 -16z m56 -26 c27 -27 3 -66 -32 -52 -22 9 -27 32
-10 49 19 18 26 19 42 3z"/>
<path d="M2870 3034 l0 -175 343 3 c337 3 343 3 390 27 51 25 97 88 97 132 0
46 -53 114 -112 143 -82 40 -140 46 -439 46 l-279 0 0 -176z"/>
<path d="M2876 2531 c-3 -5 -2 -133 3 -313 l1 -58 328 0 c350 0 480 10 548 39
98 44 101 133 7 227 -47 48 -121 81 -208 93 -76 11 -674 21 -679 12z"/>
</g>
</svg>
